<svg width="1280" height="111" viewBox="0 0 1280 111" fill="none" xmlns="http://www.w3.org/2000/svg">
<path fill-rule="evenodd" clip-rule="evenodd" d="M0 44.4L42.6667 53.28C85.3333 62.16 170.667 79.92 256 75.48C341.333 71.04 426.667 44.4 512 26.64C597.333 8.88 682.667 0 768 0C853.333 0 938.667 8.88 1024 24.42C1109.33 39.96 1194.67 62.16 1237.33 73.26L1280 84.36V111H1237.33C1194.67 111 1109.33 111 1024 111C938.667 111 853.333 111 768 111C682.667 111 597.333 111 512 111C426.667 111 341.333 111 256 111C170.667 111 85.3333 111 42.6667 111H0V44.4Z" fill="#E5E5E5" fill-opacity="0.13"/>
</svg>
